<svg xmlns="http://www.w3.org/2000/svg" version="1.1" xmlns:xlink="http://www.w3.org/1999/xlink" xmlns:svgjs="http://svgjs.dev/svgjs" width="1000" height="1000" viewBox="0 0 1000 1000"><rect width="1000" height="1000" fill="#ffffff"></rect><g transform="matrix(0.7,0,0,0.7,149.57575974039594,438.31566551901534)"><svg viewBox="0 0 396 70" data-background-color="#339d75" preserveAspectRatio="xMidYMid meet" height="176" width="1000" xmlns="http://www.w3.org/2000/svg" xmlns:xlink="http://www.w3.org/1999/xlink"><g id="tight-bounds" transform="matrix(1,0,0,1,0.2399987754331505,0.04791731874126981)"><svg viewBox="0 0 395.52 69.90416286862155" height="69.90416286862155" width="395.52"><g><svg viewBox="0 0 544.7668337931914 96.28203245070424" height="69.90416286862155" width="395.52"><g transform="matrix(1,0,0,1,149.24683379319146,13.30670636619719)"><svg viewBox="0 0 395.52 69.66861971830986" height="69.66861971830986" width="395.52"><g id="textblocktransform"><svg viewBox="0 0 395.52 69.66861971830986" height="69.66861971830986" width="395.52" id="textblock"><g><svg viewBox="0 0 395.52 69.66861971830986" height="69.66861971830986" width="395.52"><g transform="matrix(1,0,0,1,0,0)"><svg width="395.52" viewBox="4.420000076293945 -38.15999984741211 277.30999755859375 48.849998474121094" height="69.66861971830986" data-palette-color="#ffffff"><path d="M10.79 0L4.42 0Q4.57-0.83 4.57-1.81L4.57-1.81 4.57-32.47 9.45-32.47 22.39-12.11 22.39-30.81Q22.39-32.15 22.14-32.47L22.14-32.47 28.74-32.47Q28.61-31.49 28.61-30.32L28.61-30.32 28.61 0 23.54 0 10.79-19.56 10.79 0ZM53.61-1.51L53.61-1.51Q50.14 0.37 47.34 0.37 44.53 0.37 42.53-0.16 40.52-0.68 39.13-1.71L39.13-1.71Q36.3-3.78 36.3-7.71L36.3-7.71Q36.3-11.23 39.77-13.57L39.77-13.57Q43.53-16.11 49.97-16.11L49.97-16.11 50.95-16.09Q51.24-16.06 51.61-16.05 51.98-16.04 52.27-15.99L52.27-15.99Q52.07-19.9 48.9-20.56L48.9-20.56Q47.85-20.78 46.66-20.78 45.48-20.78 44.35-20.57 43.21-20.36 42.14-20.02L42.14-20.02Q39.77-19.26 38.74-18.29L38.74-18.29 38.67-18.33 37.94-23.73Q42.26-26 47.39-26L47.39-26Q55.34-26 57.57-20.26L57.57-20.26Q58.27-18.43 58.27-16.14L58.27-16.14 58.27-7.3Q58.27-4.47 60.28-3.44L60.28-3.44 55.86 0.61Q54.47-0.12 53.61-1.51ZM52.29-6.49L52.29-11.6Q51.63-11.72 50.93-11.72L50.93-11.72 49.95-11.72Q44.55-11.72 43.09-9.33L43.09-9.33Q42.65-8.62 42.65-7.84 42.65-7.06 42.93-6.46 43.21-5.86 43.87-5.47L43.87-5.47Q45.14-4.74 47.64-4.74 50.14-4.74 52.32-5.93L52.32-5.93Q52.29-6.2 52.29-6.49L52.29-6.49ZM77.22-5.37L77.22-5.37Q80.37-5.37 81.54-7.01L81.54-7.01 81.73-7.01 81.81-1.34Q80.61-0.15 77.36 0.24L77.36 0.24Q76.48 0.37 75.18 0.37 73.87 0.37 72.35-0.12 70.82-0.61 69.75-1.71L69.75-1.71Q67.52-3.98 67.52-8.81L67.52-8.81 67.52-19.9 63.84-19.9Q63.81-20.61 63.81-21.34L63.81-21.34 63.81-25.1Q63.81-25.51 63.84-25.51L63.84-25.51 67.52-25.51 67.52-32.47 73.51-32.47 73.51-25.51 80.22-25.51 80.22-19.9 73.51-19.9 73.51-9.94Q73.51-6.1 75.63-5.57L75.63-5.57Q76.31-5.37 77.22-5.37ZM102.04 0L102.04-2.22Q98.92 0.37 95.23 0.37L95.23 0.37Q91.28 0.37 89.03-2.29L89.03-2.29Q86.88-4.88 86.88-9.4L86.88-9.4 86.88-19.09Q86.88-23.97 86.67-24.69 86.47-25.42 86.37-25.61L86.37-25.61Q87.49-25.51 88.71-25.51L88.71-25.51 90.74-25.51Q91.55-25.51 92.86-25.59L92.86-25.59 92.86-11.45Q92.86-6.42 95.6-5.62L95.6-5.62Q96.43-5.37 97.4-5.37L97.4-5.37Q100.29-5.37 102.04-7.47L102.04-7.47 102.04-25.51 108.1-25.51 108.1-3.13Q108.1-0.98 108.29 0L108.29 0 102.04 0ZM121.65-17.77L121.65-2.73Q121.65-0.63 121.74 0L121.74 0 115.66 0 115.66-25.51 121.65-25.51 121.65-23.63Q123.72-26 126-26 128.29-26 129.6-25.44L129.6-25.44 129.16-18.87 129.07-18.8Q128.21-20.31 125.53-20.31L125.53-20.31Q124.5-20.31 123.44-19.62 122.38-18.92 121.65-17.77L121.65-17.77ZM149.43-1.51L149.43-1.51Q145.96 0.37 143.15 0.37 140.34 0.37 138.34-0.16 136.34-0.68 134.95-1.71L134.95-1.71Q132.12-3.78 132.12-7.71L132.12-7.71Q132.12-11.23 135.58-13.57L135.58-13.57Q139.34-16.11 145.79-16.11L145.79-16.11 146.76-16.09Q147.06-16.06 147.42-16.05 147.79-16.04 148.08-15.99L148.08-15.99Q147.89-19.9 144.71-20.56L144.71-20.56Q143.66-20.78 142.48-20.78 141.3-20.78 140.16-20.57 139.03-20.36 137.95-20.02L137.95-20.02Q135.58-19.26 134.56-18.29L134.56-18.29 134.48-18.33 133.75-23.73Q138.07-26 143.2-26L143.2-26Q151.16-26 153.38-20.26L153.38-20.26Q154.09-18.43 154.09-16.14L154.09-16.14 154.09-7.3Q154.09-4.47 156.09-3.44L156.09-3.44 151.67 0.61Q150.28-0.12 149.43-1.51ZM148.11-6.49L148.11-11.6Q147.45-11.72 146.74-11.72L146.74-11.72 145.76-11.72Q140.37-11.72 138.9-9.33L138.9-9.33Q138.46-8.62 138.46-7.84 138.46-7.06 138.74-6.46 139.03-5.86 139.68-5.47L139.68-5.47Q140.95-4.74 143.46-4.74 145.96-4.74 148.13-5.93L148.13-5.93Q148.11-6.2 148.11-6.49L148.11-6.49ZM167.37-36.38L167.37-2.73Q167.37-0.63 167.47 0L167.47 0 161.26 0 161.26-36.38 167.37-36.38ZM179.89-36.38L179.89-2.73Q179.89-0.63 179.99 0L179.99 0 173.79 0 173.79-36.38 179.89-36.38ZM190.7 10.69L184.4 8.5 186.02 7.2Q189.65 4.25 192.05-1.51L192.05-1.51 193.17-4.22 183.82-25.51 190.65-25.51 196.51-10.77 201.96-25.51 208.99-25.51Q207.72-23.75 205.89-18.97L205.89-18.97 202.23-9.91Q194.88 7.37 190.7 10.69L190.7 10.69ZM246-20.07L246.07-14.04Q244.9-14.16 243.04-14.16L243.04-14.16 235.64-14.16 235.64 0 228.95 0 228.95-32.64Q229.61-32.59 230.47-32.57L230.47-32.57 232.27-32.52Q234.13-32.47 236.13-32.47L236.13-32.47Q242.14-32.47 247.61-32.67L247.61-32.67Q247.34-30.52 247.34-26.93L247.34-26.93Q247.34-26.54 247.39-26.34L247.39-26.34 247.34-26.27Q246.04-26.64 243.73-26.64L243.73-26.64 235.64-26.64 235.64-19.92 242.77-19.92Q245.46-19.92 246-20.07L246-20.07ZM258-28.83L252.51-32.79Q254.46-35.84 256.59-38.16L256.59-38.16 261.84-34.03Q260.79-32.74 259.88-31.49L259.88-31.49Q259.88-31.49 258-28.83L258-28.83ZM258.93-25.51L258.93-2.73Q258.93-0.63 259.03 0L259.03 0 252.83 0 252.83-25.51 258.93-25.51ZM277.14-5.37L277.14-5.37Q280.29-5.37 281.46-7.01L281.46-7.01 281.66-7.01 281.73-1.34Q280.54-0.15 277.29 0.24L277.29 0.24Q276.41 0.37 275.1 0.37 273.8 0.37 272.27-0.12 270.75-0.61 269.67-1.71L269.67-1.71Q267.45-3.98 267.45-8.81L267.45-8.81 267.45-19.9 263.76-19.9Q263.74-20.61 263.74-21.34L263.74-21.34 263.74-25.1Q263.74-25.51 263.76-25.51L263.76-25.51 267.45-25.51 267.45-32.47 273.43-32.47 273.43-25.51 280.15-25.51 280.15-19.9 273.43-19.9 273.43-9.94Q273.43-6.1 275.56-5.57L275.56-5.57Q276.24-5.37 277.14-5.37Z" opacity="1" transform="matrix(1,0,0,1,0,0)" fill="#000000" class="wordmark-text-0" data-fill-palette-color="primary" id="text-0"></path></svg></g></svg></g></svg></g></svg></g><g><svg viewBox="0 0 132.79974472457172 96.28203245070424" height="96.28203245070424" width="132.79974472457172"><g><svg xmlns="http://www.w3.org/2000/svg" xmlns:xlink="http://www.w3.org/1999/xlink" version="1.1" x="0" y="0" viewBox="3.7577247619628906 16.799999237060547 91.95060729980469 66.66572570800781" enable-background="new 0 0 100 100" xml:space="preserve" height="96.28203245070424" width="132.79974472457172" class="icon-icon-0" data-fill-palette-color="accent" id="icon-0"><g fill="#ffffff" data-fill-palette-color="accent"><g fill="#ffffff" data-fill-palette-color="accent"><path d="M38.4 37.6c5.8-4.8 11.9-9.1 18.7-12.4 7.5-3.6 14.9-4.9 22.9-6.9 0.9-0.2 0.7-1.5-0.2-1.5C64.6 17 48.2 26.4 38.2 37.4 38.1 37.5 38.3 37.7 38.4 37.6L38.4 37.6z" fill="#000000" data-fill-palette-color="accent"></path></g></g><g fill="#ffffff" data-fill-palette-color="accent"><g fill="#ffffff" data-fill-palette-color="accent"><path d="M40.7 38.3c2.9 0.4 5.4-0.3 7.6-2.3 0.8-0.8 1.6-2.2 1.6-3.4 0-1.2-1.1-2.1-2.2-1.7-1.1 0.3-1.1 1.6-0.3 2.3 0.3 0.2 0.6 0.2 1 0.1-0.4-0.1-0.8-0.2-1.2-0.3 0 0-0.9 1.4-1 1.5-0.4 0.5-1 0.9-1.6 1.3-1.2 0.8-2.7 1.3-3.9 2C40.3 38 40.5 38.3 40.7 38.3L40.7 38.3z" fill="#000000" data-fill-palette-color="accent"></path></g></g><g fill="#ffffff" data-fill-palette-color="accent"><g fill="#ffffff" data-fill-palette-color="accent"><path d="M34.7 29.3c-3-3.4-9.6 3.6-11.5 5.7-4.2 4.8-6 13.6-3.1 19.4 0.3 0.6 1.3 0.3 1.2-0.3-0.2-5.6-0.7-10.1 1.9-15.3 1.6-3.2 6.9-10 11.3-9.2C34.7 29.6 34.8 29.4 34.7 29.3L34.7 29.3z" fill="#000000" data-fill-palette-color="accent"></path></g></g><g fill="#ffffff" data-fill-palette-color="accent"><g fill="#ffffff" data-fill-palette-color="accent"><path d="M21.5 54.4c-2.9-4.8-13-4.9-16.1 0-1.8 2.8-2.1 5.4-1 8.5 0.8 2.3 2.2 4.6 3.2 6.8 0.6 1.2 1.1 2.3 1.7 3.5 0.3 0.6 0.6 1.1 0.9 1.7 1.2 1 1.2 2 0.1 3-0.3-0.6-1.4-0.4-1.4 0.4 0.3 4 6 2.5 4.7-1.4-1.6-4.8-4.1-9.2-6.2-13.8-2.7-5.7 1.1-9.8 6.9-9.5C16.7 53.8 19.1 54.2 21.5 54.4 21.5 54.5 21.6 54.4 21.5 54.4L21.5 54.4z" fill="#000000" data-fill-palette-color="accent"></path></g></g><g fill="#ffffff" data-fill-palette-color="accent"><g fill="#ffffff" data-fill-palette-color="accent"><path d="M22.7 59.9c3.2 3.6 8 3.6 12.3 2 3.8-1.4 7.1 1.6 10 3.6 3.8 2.6 6.8 5.7 9.6 9.3 8.4 10.9 21.7 3.4 33 4.1 1.5 0.1 1.6-2 0.3-2.5-5.5-1.8-11.3 0.2-16.7 1.2-4.4 0.8-8.9 0.6-12.5-2.4-2.2-1.9-3.8-4.7-5.9-6.8-3.2-3.3-7.9-7.1-12.3-8.8-2.3-0.9-3.9-0.9-6.3 0-4.1 1.6-7.4 1.1-11.6 0C22.7 59.6 22.6 59.8 22.7 59.9L22.7 59.9z" fill="#000000" data-fill-palette-color="accent"></path></g></g><g fill="#ffffff" data-fill-palette-color="accent"><g fill="#ffffff" data-fill-palette-color="accent"><path d="M35.6 41c-1.4 2.3-2.3 5.3-1.8 8.1 0.3 1.3 1.1 4.8 3.1 3.4 0.6-0.4 0.4-1.4-0.4-1.4-1.2 0-1.5-4.5-1.5-5.1-0.1-1.6 0.2-3.3 0.7-4.9C35.7 41 35.6 41 35.6 41L35.6 41z" fill="#000000" data-fill-palette-color="accent"></path></g></g><g fill="#ffffff" data-fill-palette-color="accent"><g fill="#ffffff" data-fill-palette-color="accent"><path d="M36.5 49.7c5.3 0.9 8.9 5.8 13.8 7.7 0.6 0.2 1-0.6 0.6-1-2.1-2.1-4.7-3.5-7.2-5.1-2.2-1.4-4.5-2.3-7.2-2.1C36.2 49.1 36.2 49.6 36.5 49.7L36.5 49.7z" fill="#000000" data-fill-palette-color="accent"></path></g></g><g fill="#ffffff" data-fill-palette-color="accent"><g fill="#ffffff" data-fill-palette-color="accent"><path d="M53.5 59c3.9 5.3 6 13.3 13 15.5 0.7 0.2 1.2-0.9 0.5-1.2-6.2-3.2-8.6-9.6-13.1-14.6C53.6 58.5 53.3 58.8 53.5 59L53.5 59z" fill="#000000" data-fill-palette-color="accent"></path></g></g><g fill="#ffffff" data-fill-palette-color="accent"><g fill="#ffffff" data-fill-palette-color="accent"><path d="M84.2 73.3c4.6 1.1 6.8 4.8 10.5 7.3 0.5 0.4 1.3-0.4 0.9-0.9-2.5-3.5-7.1-6.3-11.3-6.9C84 72.8 83.9 73.2 84.2 73.3L84.2 73.3z" fill="#000000" data-fill-palette-color="accent"></path></g></g><g fill="#ffffff" data-fill-palette-color="accent"><g fill="#ffffff" data-fill-palette-color="accent"><path d="M31.1 63.3c-3.6 0-7.3-0.4-10.9-1.2-3.2-0.7-5.9-2.8-9.1-3.6-1-0.3-1.9 1.1-1.1 1.8C15.1 65.2 24.9 65.2 31.1 63.3 31.2 63.4 31.2 63.3 31.1 63.3L31.1 63.3z" fill="#000000" data-fill-palette-color="accent"></path></g></g><g fill="#ffffff" data-fill-palette-color="accent"><g fill="#ffffff" data-fill-palette-color="accent"><path d="M14.2 62.7c-0.2 3.7-0.1 7.4 0.4 11.1 0.2 1.5 0.5 2.9 0.8 4.3 0.8 3.6-3.4 3-5.9 3.2-1.1 0.1-1.5 1.8-0.3 2 2.7 0.4 7.9 0.3 8.6-2.9 0.4-1.8-1.3-5-1.8-6.8-0.9-3.6-1.3-7.3-1.4-10.9C14.7 62.4 14.3 62.4 14.2 62.7L14.2 62.7z" fill="#000000" data-fill-palette-color="accent"></path></g></g><g fill="#ffffff" data-fill-palette-color="accent"><g fill="#ffffff" data-fill-palette-color="accent"><path d="M38.7 27.2c0.8-0.4 1.7-0.5 2.6-0.3 1.1 0.2 1.2-1.6 0.2-1.5-1.2 0.1-2.2 0.6-3.1 1.4C38.3 27 38.5 27.3 38.7 27.2L38.7 27.2z" fill="#000000" data-fill-palette-color="accent"></path></g></g><g fill="#ffffff" data-fill-palette-color="accent"><g fill="#ffffff" data-fill-palette-color="accent"><path d="M43.9 25.1c9.1-2.6 17.7-4.7 27.1-5.7 0.7-0.1 0.8-1.2 0-1.2-9.2 0.1-19.1 2.2-27.2 6.7C43.8 25 43.8 25.1 43.9 25.1L43.9 25.1z" fill="#000000" data-fill-palette-color="accent"></path></g></g><g fill="#ffffff" data-fill-palette-color="accent"><g fill="#ffffff" data-fill-palette-color="accent"><path d="M33.2 28.1c3 0.6 6.1 1 9.2 1 0.8 0 0.8-1.2 0-1.2-3-0.4-6.1-0.4-9.1-0.1C33 27.8 33 28.1 33.2 28.1L33.2 28.1z" fill="#000000" data-fill-palette-color="accent"></path></g></g></svg></g></svg></g></svg></g><defs></defs></svg><rect width="395.52" height="69.90416286862155" fill="none" stroke="none" visibility="hidden"></rect></g></svg></g></svg>